<svg xmlns="http://www.w3.org/2000/svg" width="138.848" height="53.125" viewBox="0 0 138.848 53.125" fill="none">
  <path d="M 124.255 20.847 C 128.783 20.847 132.347 22.259 134.947 25.083 C 137.547 27.908 138.848 31.785 138.848 36.716 C 138.848 37.03 138.824 37.367 138.779 37.725 L 138.779 38.331 L 114.437 38.331 C 114.661 41.424 115.625 43.822 117.328 45.525 C 119.032 47.229 121.341 48.082 124.255 48.082 C 128.469 48.082 131.696 46.221 133.938 42.5 L 138.309 45.257 C 135.081 50.502 130.173 53.125 123.583 53.125 C 120.713 53.125 118.157 52.452 115.916 51.107 C 113.72 49.718 111.994 47.812 110.739 45.392 C 109.529 42.971 108.923 40.169 108.923 36.986 C 108.923 33.758 109.55 30.933 110.806 28.512 C 112.106 26.092 113.9 24.208 116.186 22.864 C 118.517 21.519 121.207 20.847 124.255 20.847 Z M 124.255 25.554 C 121.61 25.554 119.457 26.272 117.799 27.707 C 116.141 29.096 115.087 31.113 114.638 33.758 L 132.997 33.758 C 132.818 31.292 131.921 29.32 130.307 27.84 C 128.738 26.316 126.72 25.554 124.255 25.554 Z" fill="currentColor" fill-rule="evenodd"></path>
  <path d="M 107.067 52.452 L 101.687 52.452 L 101.687 47.14 C 100.566 49.067 99.087 50.547 97.249 51.578 C 95.455 52.609 93.416 53.125 91.13 53.125 C 88.35 53.125 85.794 52.474 83.463 51.174 C 81.132 49.874 79.272 48.014 77.882 45.594 C 76.493 43.173 75.798 40.304 75.798 36.986 C 75.798 33.624 76.493 30.755 77.882 28.379 C 79.272 25.958 81.132 24.097 83.463 22.797 C 85.794 21.497 88.35 20.847 91.13 20.847 C 93.416 20.847 95.456 21.362 97.249 22.393 C 99.087 23.424 100.566 24.904 101.687 26.831 L 101.687 0 L 107.067 0 L 107.067 52.452 Z M 91.802 25.891 C 89.919 25.891 88.17 26.316 86.557 27.168 C 84.943 28.02 83.643 29.275 82.657 30.934 C 81.716 32.593 81.245 34.61 81.245 36.986 C 81.245 39.362 81.716 41.38 82.657 43.039 C 83.643 44.697 84.943 45.953 86.557 46.804 C 88.17 47.656 89.919 48.082 91.802 48.082 C 93.371 48.082 94.917 47.656 96.441 46.804 C 97.966 45.953 99.221 44.697 100.207 43.039 C 101.194 41.38 101.687 39.362 101.687 36.986 C 101.687 34.61 101.194 32.593 100.207 30.934 C 99.221 29.275 97.966 28.02 96.441 27.168 C 94.917 26.316 93.371 25.891 91.802 25.891 Z" fill="currentColor" fill-rule="evenodd"></path>
  <path d="M 57.936 20.847 C 60.985 20.847 63.697 21.542 66.073 22.932 C 68.494 24.322 70.399 26.227 71.789 28.647 C 73.223 31.068 73.942 33.848 73.942 36.986 C 73.942 40.079 73.223 42.858 71.789 45.324 C 70.399 47.745 68.494 49.651 66.073 51.041 C 63.697 52.43 60.984 53.125 57.936 53.125 C 54.933 53.125 52.221 52.43 49.8 51.041 C 47.38 49.651 45.451 47.745 44.017 45.324 C 42.627 42.858 41.932 40.079 41.932 36.986 C 41.932 33.848 42.627 31.068 44.017 28.647 C 45.451 26.227 47.38 24.322 49.8 22.932 C 52.221 21.542 54.933 20.847 57.936 20.847 Z M 57.936 25.891 C 55.919 25.891 54.103 26.362 52.489 27.303 C 50.92 28.244 49.665 29.566 48.723 31.269 C 47.827 32.928 47.379 34.834 47.379 36.986 C 47.379 39.138 47.827 41.043 48.723 42.702 C 49.665 44.36 50.92 45.683 52.489 46.669 C 54.103 47.611 55.919 48.082 57.936 48.082 C 59.954 48.082 61.747 47.611 63.316 46.669 C 64.93 45.683 66.186 44.361 67.082 42.702 C 68.024 41.043 68.495 39.138 68.495 36.986 C 68.495 34.834 68.024 32.928 67.082 31.269 C 66.186 29.566 64.93 28.244 63.316 27.303 C 61.747 26.362 59.954 25.891 57.936 25.891 Z" fill="currentColor" fill-rule="evenodd"></path>
  <path d="M 19.238 39.741 C 19.46 40.802 19.817 41.789 20.31 42.701 C 21.251 44.36 22.507 45.683 24.076 46.669 C 25.69 47.61 27.505 48.082 29.523 48.082 C 32.033 48.082 34.275 47.521 36.247 46.4 C 38.22 45.28 39.564 43.957 40.282 42.433 L 40.282 49.157 C 39.206 50.412 37.659 51.399 35.642 52.116 C 33.669 52.788 31.63 53.125 29.523 53.125 C 26.519 53.125 23.806 52.43 21.386 51.04 C 19.261 49.82 17.515 48.203 16.15 46.189 L 19.238 39.741 Z" fill="currentColor" fill-rule="nonzero"></path>
  <path d="M 29.523 20.847 C 31.63 20.847 33.669 21.205 35.642 21.922 C 37.659 22.595 39.206 23.559 40.282 24.814 L 40.282 31.539 C 39.564 30.015 38.22 28.692 36.247 27.571 C 34.275 26.451 32.033 25.89 29.523 25.89 C 28.089 25.89 26.757 26.128 25.527 26.603 L 28.262 20.889 C 28.676 20.861 29.097 20.847 29.523 20.847 Z" fill="currentColor" fill-rule="nonzero"></path>
  <path d="M 0 18.274 L 0 13.777 L 27.543 13.777 L 8.713 53.125 L 3.71 53.125 L 20.404 18.274 L 0 18.274 Z" fill="currentColor" fill-rule="nonzero"></path>
</svg>