<svg xmlns="http://www.w3.org/2000/svg" width="10.796" height="10.545" viewBox="0 0 10.796 10.545" fill="none">
  <path d="M 5.156 6.959 C 5.215 7.243 5.311 7.507 5.443 7.752 C 5.695 8.196 6.032 8.551 6.452 8.815 C 6.885 9.068 7.372 9.194 7.912 9.194 C 8.585 9.194 9.186 9.044 9.714 8.743 C 10.243 8.443 10.604 8.088 10.796 7.68 L 10.796 9.482 C 10.507 9.818 10.093 10.083 9.552 10.275 C 9.024 10.455 8.477 10.545 7.912 10.545 C 7.107 10.545 6.38 10.359 5.731 9.987 C 5.162 9.66 4.694 9.226 4.328 8.686 L 5.156 6.959 Z" fill="currentColor" fill-rule="nonzero"></path>
  <path d="M 7.912 1.895 C 8.477 1.895 9.024 1.991 9.552 2.183 C 10.093 2.363 10.507 2.622 10.796 2.958 L 10.796 4.76 C 10.604 4.352 10.243 3.997 9.714 3.697 C 9.186 3.397 8.585 3.246 7.912 3.246 C 7.528 3.246 7.171 3.31 6.841 3.438 L 7.574 1.906 C 7.685 1.899 7.798 1.895 7.912 1.895 Z" fill="currentColor" fill-rule="nonzero"></path>
  <path d="M 0 1.205 L 0 0 L 7.382 0 L 2.335 10.545 L 0.994 10.545 L 5.469 1.205 L 0 1.205 Z" fill="currentColor" fill-rule="nonzero"></path>
</svg>