<svg width="827" height="192" viewBox="0 0 827 192" fill="none" xmlns="http://www.w3.org/2000/svg">
  <path d="M162.536 66.2467V50.1045H261.407L193.811 191.349H175.853L235.781 66.2467H162.536Z" fill="#2AC8D9"/>
  <path d="M606.156 191.349C595.857 191.349 586.684 188.935 578.637 184.107C570.752 179.118 564.556 172.279 560.05 163.589C555.705 154.899 553.533 144.841 553.533 133.415C553.533 121.829 555.786 111.69 560.292 103C564.959 94.3102 571.396 87.5512 579.603 82.7234C587.971 77.8956 597.627 75.4817 608.57 75.4817C624.823 75.4817 637.617 80.5509 646.951 90.6893C656.284 100.828 660.951 114.748 660.951 132.45C660.951 133.576 660.871 134.783 660.71 136.071C660.71 137.197 660.71 137.921 660.71 138.243H573.327C574.131 149.347 577.591 157.957 583.707 164.072C589.822 170.187 598.109 173.245 608.57 173.245C623.697 173.245 635.284 166.566 643.33 153.209L659.02 163.106C647.433 181.935 629.812 191.349 606.156 191.349Z" fill="#0F172A"/>
  <path d="M608.57 92.3791C599.075 92.3791 591.351 94.9539 585.396 100.104C579.442 105.092 575.66 112.334 574.051 121.829H639.95C639.307 112.978 636.088 105.897 630.295 100.586C624.662 95.1148 617.421 92.3791 608.57 92.3791Z" fill="#0F172A"/>
  <path d="M434.623 133.415C434.623 121.346 437.117 111.046 442.106 102.517C447.095 93.8273 453.773 87.1489 462.141 82.482C470.51 77.8151 479.682 75.4817 489.66 75.4817C497.867 75.4817 505.189 77.3324 511.626 81.0337C518.224 84.735 523.535 90.0455 527.558 96.9654V0.650879H546.869V188.935H527.558V169.865C523.535 176.785 518.224 182.096 511.626 185.797C505.189 189.498 497.867 191.349 489.66 191.349C479.682 191.349 470.51 189.015 462.141 184.348C453.773 179.682 447.095 173.003 442.106 164.313C437.117 155.623 434.623 145.324 434.623 133.415Z" fill="#0F172A"/>
  <path d="M454.175 133.415C454.175 141.944 455.865 149.186 459.245 155.14C462.785 161.095 467.452 165.601 473.245 168.658C479.039 171.716 485.315 173.245 492.074 173.245C497.706 173.245 503.258 171.716 508.73 168.658C514.201 165.601 518.707 161.095 522.247 155.14C525.788 149.186 527.558 141.944 527.558 133.415C527.558 124.886 525.788 117.644 522.247 111.69C518.707 105.736 514.201 101.23 508.73 98.1724C503.258 95.1148 497.706 93.586 492.074 93.586C485.315 93.586 479.039 95.1148 473.245 98.1724C467.452 101.23 462.785 105.736 459.245 111.69C455.865 117.644 454.175 124.886 454.175 133.415Z" fill="#0F172A"/>
  <path d="M313.058 133.415C313.058 122.15 315.552 112.173 320.541 103.483C325.691 94.7929 332.61 87.9535 341.3 82.9648C349.99 77.9761 359.727 75.4817 370.509 75.4817C381.452 75.4817 391.188 77.9761 399.717 82.9648C408.407 87.9535 415.246 94.7929 420.235 103.483C425.385 112.173 427.959 122.15 427.959 133.415C427.959 144.519 425.385 154.497 420.235 163.348C415.246 172.038 408.407 178.877 399.717 183.866C391.188 188.854 381.452 191.349 370.509 191.349C359.727 191.349 349.99 188.854 341.3 183.866C332.61 178.877 325.691 172.038 320.541 163.348C315.552 154.497 313.058 144.519 313.058 133.415Z" fill="#0F172A"/>
  <path d="M332.61 133.415C332.61 141.14 334.22 147.979 337.438 153.933C340.818 159.888 345.324 164.635 350.956 168.175C356.749 171.555 363.267 173.245 370.509 173.245C377.75 173.245 384.187 171.555 389.82 168.175C395.613 164.635 400.119 159.888 403.338 153.933C406.717 147.979 408.407 141.14 408.407 133.415C408.407 125.691 406.717 118.851 403.338 112.897C400.119 106.782 395.613 102.035 389.82 98.6552C384.187 95.2757 377.75 93.586 370.509 93.586C363.267 93.586 356.749 95.2757 350.956 98.6552C345.324 102.035 340.818 106.782 337.438 112.897C334.22 118.851 332.61 125.691 332.61 133.415Z" fill="#0F172A"/>
  <path d="M231.595 143.306C232.391 147.116 233.671 150.658 235.441 153.932C238.82 159.886 243.327 164.634 248.959 168.175C254.752 171.554 261.27 173.245 268.512 173.245C277.524 173.245 285.57 171.234 292.651 167.211C299.731 163.188 304.558 158.439 307.133 152.968V177.107C303.271 181.612 297.719 185.153 290.478 187.727C283.397 190.141 276.075 191.349 268.512 191.349C257.73 191.349 247.993 188.855 239.303 183.866C231.675 179.487 225.41 173.682 220.51 166.45L231.595 143.306Z" fill="#0F172A"/>
  <path d="M268.512 75.4813C276.075 75.4813 283.397 76.7683 290.478 79.3428C297.719 81.7566 303.271 85.2181 307.133 89.7237V113.862C304.558 108.391 299.731 103.643 292.651 99.62C285.57 95.597 277.524 93.5853 268.512 93.5853C263.365 93.5853 258.583 94.4388 254.167 96.1461L263.987 75.6343C265.474 75.5339 266.983 75.4813 268.512 75.4813Z" fill="#0F172A"/>
</svg>
