<svg width="230" height="88" viewBox="0 0 230 88" fill="none" xmlns="http://www.w3.org/2000/svg">
<g clip-path="url(#clip0_2514_1220)">
<path fill-rule="evenodd" clip-rule="evenodd" d="M204.39 87.861C199.645 87.861 195.419 86.7491 191.712 84.5241C188.079 82.2261 185.224 79.075 183.148 75.071C181.146 71.067 180.145 66.433 180.145 61.169C180.145 55.831 181.183 51.159 183.259 47.156C185.41 43.152 188.375 40.038 192.157 37.813C196.012 35.589 200.461 34.4771 205.503 34.4771C212.991 34.4771 218.886 36.8131 223.186 41.4841C227.486 46.1551 229.637 52.568 229.637 60.724C229.637 61.243 229.599 61.799 229.525 62.392V63.3931H189.265C189.636 68.5091 191.23 72.476 194.047 75.293C196.865 78.111 200.683 79.52 205.503 79.52C212.472 79.52 217.811 76.4431 221.518 70.2891L228.747 74.849C223.408 83.523 215.29 87.861 204.39 87.861ZM205.503 42.2621C201.128 42.2621 197.569 43.449 194.826 45.821C192.083 48.12 190.34 51.4561 189.599 55.8311H219.961C219.664 51.7531 218.181 48.49 215.512 46.044C212.917 43.523 209.581 42.2621 205.503 42.2621Z" fill="#FFFFFF"/>
<path fill-rule="evenodd" clip-rule="evenodd" d="M125.36 61.169C125.36 55.608 126.509 50.863 128.807 46.933C131.106 42.93 134.183 39.853 138.038 37.702C141.894 35.552 146.12 34.477 150.717 34.477C154.498 34.477 157.872 35.33 160.838 37.035C163.877 38.74 166.324 41.187 168.178 44.375V0H177.075V86.749H168.178V77.963C166.324 81.151 163.877 83.598 160.838 85.303C157.872 87.008 154.498 87.861 150.717 87.861C146.12 87.861 141.894 86.786 138.038 84.636C134.183 82.485 131.106 79.408 128.807 75.405C126.509 71.401 125.36 66.656 125.36 61.169ZM134.368 61.169C134.368 65.099 135.147 68.435 136.704 71.178C138.335 73.922 140.485 75.998 143.154 77.406C145.823 78.815 148.715 79.52 151.829 79.52C154.424 79.52 156.982 78.815 159.503 77.406C162.024 75.998 164.1 73.922 165.731 71.178C167.362 68.435 168.178 65.099 168.178 61.169C168.178 57.239 167.362 53.903 165.731 51.159C164.1 48.416 162.024 46.34 159.503 44.931C156.982 43.523 154.424 42.818 151.829 42.818C148.715 42.818 145.823 43.523 143.154 44.931C140.485 46.34 138.335 48.416 136.704 51.159C135.147 53.903 134.368 57.239 134.368 61.169Z" fill="#FFFFFF"/>
<path fill-rule="evenodd" clip-rule="evenodd" d="M69.3506 61.169C69.3506 55.979 70.4996 51.382 72.7976 47.378C75.1706 43.374 78.3586 40.223 82.3626 37.925C86.3666 35.626 90.8516 34.4771 95.8196 34.4771C100.862 34.4771 105.348 35.626 109.277 37.925C113.281 40.223 116.432 43.374 118.731 47.378C121.103 51.382 122.289 55.979 122.289 61.169C122.289 66.285 121.103 70.882 118.731 74.96C116.432 78.964 113.281 82.1151 109.277 84.4131C105.348 86.7121 100.862 87.861 95.8196 87.861C90.8516 87.861 86.3666 86.7121 82.3626 84.4131C78.3586 82.1151 75.1706 78.964 72.7976 74.96C70.4996 70.882 69.3506 66.285 69.3506 61.169ZM78.3586 61.169C78.3586 64.728 79.1006 67.8791 80.5826 70.6221C82.1396 73.3661 84.2156 75.553 86.8116 77.184C89.4806 78.741 92.4826 79.52 95.8196 79.52C99.1556 79.52 102.122 78.741 104.717 77.184C107.386 75.553 109.462 73.3661 110.945 70.6221C112.502 67.8791 113.281 64.728 113.281 61.169C113.281 57.61 112.502 54.459 110.945 51.716C109.462 48.898 107.386 46.711 104.717 45.154C102.122 43.597 99.1556 42.8181 95.8196 42.8181C92.4826 42.8181 89.4806 43.597 86.8116 45.154C84.2156 46.711 82.1396 48.898 80.5826 51.716C79.1006 54.459 78.3586 57.61 78.3586 61.169Z" fill="#FFFFFF"/>
<path d="M31.8179 65.7261C32.1849 67.4811 32.7749 69.1131 33.5899 70.6221C35.1469 73.3651 37.2229 75.5531 39.8179 77.1841C42.4869 78.7411 45.4899 79.5201 48.8269 79.5201C52.9789 79.5201 56.6859 78.5931 59.9479 76.7401C63.2109 74.8861 65.4339 72.6981 66.6209 70.1781V81.2991C64.8409 83.3751 62.2829 85.0061 58.9469 86.1921C55.6849 87.3041 52.3109 87.8611 48.8269 87.8611C43.8589 87.8611 39.3729 86.7121 35.3689 84.4131C31.8549 82.3951 28.9679 79.7211 26.7109 76.3891L31.8179 65.7261Z" fill="#FFFFFF"/>
<path d="M48.8268 34.4771C52.3108 34.4771 55.6848 35.0701 58.9468 36.2561C62.2828 37.3681 64.8408 38.9631 66.6208 41.0391V52.16C65.4338 49.64 63.2108 47.452 59.9478 45.598C56.6858 43.745 52.9788 42.8181 48.8268 42.8181C46.4548 42.8181 44.2518 43.2111 42.2178 43.9981L46.7418 34.5471C47.4268 34.5011 48.1218 34.4771 48.8268 34.4771Z" fill="#FFFFFF"/>
<path d="M0 30.2219V22.7849H45.553L14.41 87.8609H6.136L33.746 30.2219H0Z" fill="#2AC8D9"/>
</g>
<defs>
<clipPath id="clip0_2514_1220">
<rect width="230" height="88" fill="white"/>
</clipPath>
</defs>
</svg>
